Coordinates
version=1
nRows=11
nColumns=42
inDegrees=yes

Units are S.I. units (second, meters, Newtons, ...)
If the header above contains a line with 'inDegrees', this indicates whether rotational values are in degrees (yes) or radians (no).

endheader
time	pelvis_tilt	pelvis_list	pelvis_rotation	pelvis_tx	pelvis_ty	pelvis_tz	hip_flexion_r	hip_adduction_r	hip_rotation_r	knee_angle_r	knee_angle_r_beta	ankle_angle_r	subtalar_angle_r	mtp_angle_r	hip_flexion_l	hip_adduction_l	hip_rotation_l	knee_angle_l	knee_angle_l_beta	ankle_angle_l	subtalar_angle_l	mtp_angle_l	lumbar_extension	lumbar_bending	lumbar_rotation	sh_tx_r	sh_ty_r	sh_tz_r	sh_plane_elev_r	sh_elev_r	sh_axial_rot_r	elbow_flex_r	pro_sup_r	sh_tx_l	sh_ty_l	sh_tz_l	sh_plane_elev_l	sh_elev_l	sh_axial_rot_l	elbow_flex_l	pro_sup_l
      2.93333330	     -5.20554788	     -0.22655646	     -0.87786456	      0.32597600	      0.93945405	     -0.06991415	      1.08682317	     -6.50670094	    -10.29551203	      1.02470045	      0.01788440	      0.76356456	     -7.05692054	     -7.49999987	      4.22942812	     -3.99453623	     -5.36034420	      0.35147414	      0.00613438	      7.92135902	      3.94638190	     -7.49999987	      2.44504400	      1.40632227	     -6.51737689	     -0.01241764	     -0.01440631	     -0.00500771	     -8.47588747	      7.26377186	      6.09650045	     28.88997699	    109.71182519	     -0.02401839	     -0.00299107	     -0.00394373	     59.54720964	     86.71440824	     -3.46088571	     12.09143789	      2.08518051
      2.95000000	     -5.25153647	     -0.19244205	     -0.91560260	      0.32578194	      0.93945037	     -0.07022262	      1.16338744	     -6.54919814	    -10.29707206	      1.06812250	      0.01864225	      0.76671591	     -7.07727073	     -7.49999987	      4.24832509	     -3.97565525	     -5.33836447	      0.35707871	      0.00623220	      8.01608230	      4.05366415	     -7.49999987	      2.46455089	      1.30481430	     -5.84269372	     -0.01473076	     -0.01422702	     -0.00490824	     -9.22348157	      7.18410857	      5.35253406	     28.87512374	    112.67287002	     -0.02196799	     -0.00243978	     -0.00388558	     60.17417931	     86.76340751	     -1.43440047	     11.59409045	      2.21789391
      2.96666670	     -5.21018293	     -0.17540897	     -0.88549554	      0.32610992	      0.94259031	     -0.07003387	      1.09769896	     -6.55862305	    -10.30903531	      1.05206724	      0.01836204	      0.70159977	     -7.09040460	     -7.49999987	      4.16924127	     -3.98165799	     -5.27599391	      0.36265738	      0.00632957	      7.92988904	      3.93582441	     -7.49999987	      2.38135946	      1.32916874	     -6.40714933	     -0.01396955	     -0.01416011	     -0.00502935	     -9.36796682	      7.06834742	      5.81381072	     29.19887082	    110.82439524	     -0.02369390	     -0.00221586	     -0.00390256	     59.45200679	     86.77060131	     -1.92372819	     11.90466247	      2.13254184
      2.98333330	     -5.18838014	     -0.17878752	     -0.84027146	      0.32991497	      0.94251047	     -0.06612855	      0.98611038	     -6.48707855	    -10.30346887	      1.02576192	      0.01790292	      0.65871576	     -7.04039455	     -7.49999987	      4.05748885	     -4.06356210	     -5.23494550	      0.37146730	      0.00648333	      7.86230040	      3.95222233	     -7.49999987	      2.35062967	      1.22154422	     -6.37175529	     -0.01626205	     -0.01416695	     -0.00514910	     -9.41391874	      6.83286171	      5.82746681	     29.14301270	    110.90754172	     -0.02477466	     -0.00191964	     -0.00390627	     59.34707101	     86.71531730	     -1.85982197	     11.90942627	      2.17072628
      3.00000000	     -5.00043378	     -0.18400603	     -0.71266991	      0.33012305	      0.94263465	     -0.06580564	      0.60428581	     -6.42160603	    -10.56525595	      0.92595115	      0.01616090	      0.48341746	     -6.87128819	     -7.49999987	      3.78892166	     -4.12584405	     -5.06426329	      0.37733181	      0.00658568	      7.70863813	      3.70989610	     -7.49999987	      2.32292809	      1.23458594	     -7.12270185	     -0.01443397	     -0.01391986	     -0.00518870	     -9.72764523	      6.54459631	      6.42031086	     28.64995498	    108.41436706	     -0.02672071	     -0.00166112	     -0.00406881	     58.16541511	     86.82667453	     -2.28242480	     13.45821806	      2.57871662
      3.01666670	     -4.98869618	     -0.16776908	     -0.73805533	      0.32985396	      0.94261727	     -0.06630523	      0.51855259	     -6.42135841	    -10.56037689	      0.96787915	      0.01689268	      0.62564021	     -6.62106790	     -7.49999987	      3.69948699	     -4.15939651	     -5.14013683	      0.38570357	      0.00673180	      7.66294685	      3.70710889	     -7.49999987	      2.22523860	      1.24281577	     -6.54572613	     -0.01804652	     -0.01424470	     -0.00525366	    -11.03187404	      6.48236370	      5.87480217	     29.22845103	    112.58807031	     -0.02729054	     -0.00199783	     -0.00395927	     59.27647384	     87.04586988	      0.76669235	     11.97513619	      2.20189988
      3.03333330	     -4.99766150	     -0.15494007	     -0.69494969	      0.33007862	      0.94251333	     -0.06594009	      0.43296925	     -6.36817430	    -10.59882521	      0.90335180	      0.01576646	      0.39683868	     -6.74406025	     -7.49999987	      3.67249873	     -4.21034340	     -5.22791114	      0.38487979	      0.00671742	      7.42255175	      3.68506059	     -7.49999987	      2.30696209	      1.13501132	     -6.78211059	     -0.01754514	     -0.01442486	     -0.00530222	    -11.09762312	      6.29757818	      6.17150252	     29.07833775	    111.26120193	     -0.02837110	     -0.00235788	     -0.00406733	     58.87141145	     87.55547682	      0.50316059	     12.71364694	      2.38006460
      3.05000000	     -4.95915485	     -0.13534912	     -0.70291367	      0.32976209	      0.94251984	     -0.06633760	      0.35276699	     -6.35142781	    -10.54857605	      0.90563899	      0.01580638	      0.41450129	     -6.92222949	     -7.49999987	      3.58097243	     -4.23579913	     -5.18890334	      0.39260399	      0.00685223	      7.41248610	      3.60948855	     -7.49999987	      2.35082998	      1.06161691	     -6.62611177	     -0.01792592	     -0.01465500	     -0.00536713	    -12.46063404	      6.21625528	      6.95625044	     29.56505215	    112.86459978	     -0.02873431	     -0.00297922	     -0.00391140	     59.10319707	     88.19530101	      2.92816940	     11.88104338	      2.24704796
      3.06666670	     -5.02707310	     -0.10802180	     -0.63785954	      0.32597997	      0.94241195	     -0.07029594	      0.42599820	     -6.42778847	    -10.63306215	      0.90499073	      0.01579507	      0.38414392	     -6.95899510	     -7.49999987	      3.70313728	     -4.16810225	     -5.05979383	      0.39202838	      0.00684219	      7.33415496	      3.38333681	     -7.49999987	      2.44490782	      1.04722435	     -6.56281968	     -0.01743448	     -0.01489245	     -0.00532978	    -12.55486232	      6.35985766	      7.01635559	     29.88062003	    112.07878253	     -0.02839065	     -0.00412221	     -0.00386994	     59.30101000	     89.25719121	      2.25748678	     11.71127039	      2.23788948
      3.08333330	     -4.90734047	     -0.08066321	     -0.53636853	      0.32986640	      0.94553305	     -0.06636414	      0.22873649	     -6.40628502	    -10.81801356	      0.79850476	      0.01393654	      0.25890473	     -6.96398464	     -7.49999987	      3.57799070	     -4.15616724	     -4.97900280	      0.38574673	      0.00673255	      7.18750354	      3.46358040	     -7.49999987	      2.44289071	      0.88051375	     -6.78261590	     -0.01632640	     -0.01484218	     -0.00523195	    -12.62373420	      6.12524564	      7.34198188	     29.28525622	    110.84019465	     -0.02905027	     -0.00505087	     -0.00399838	     59.06788333	     89.81839263	      1.61365533	     12.18684394	      2.66782305
      3.10000000	     -4.91232404	     -0.07460581	     -0.52911921	      0.32599073	      0.94532689	     -0.07029974	      0.28300197	     -6.44854684	    -10.76743050	      0.81242323	      0.01417946	      0.31320846	     -6.97430172	     -7.49999987	      3.60692430	     -4.10348629	     -5.01652568	      0.36510214	      0.00637223	      7.20954881	      3.45622604	     -7.49999987	      2.57554154	      0.96972542	     -6.88583331	     -0.01516905	     -0.01487502	     -0.00522619	    -12.63141291	      6.25916260	      7.31935878	     29.36428931	    110.87389353	     -0.02740063	     -0.00459440	     -0.00383754	     59.19989293	     90.03497915	      1.61438700	     12.17632939	      2.60855501
